<?xml version="1.0" encoding="UTF-8" standalone="no"?>
<svg
   xmlns:dc="http://purl.org/dc/elements/1.1/"
   xmlns:cc="http://creativecommons.org/ns#"
   xmlns:rdf="http://www.w3.org/1999/02/22-rdf-syntax-ns#"
   xmlns:svg="http://www.w3.org/2000/svg"
   xmlns="http://www.w3.org/2000/svg"
   xml:space="preserve"
   width="128"
   viewBox="0 0 128 128"
   version="1.1"
   id="Слой_1"
   height="128"><metadata
     id="metadata21"><rdf:RDF><cc:Work
         rdf:about=""><dc:format>image/svg+xml</dc:format><dc:type
           rdf:resource="http://purl.org/dc/dcmitype/StillImage" /><dc:title></dc:title></cc:Work></rdf:RDF></metadata><defs
     id="defs19" /><circle
     r="64"
     cy="64"
     cx="64"
     id="path4502"
     style="fill:#28aae1;fill-opacity:1;stroke-width:1.00639665" /><g
     transform="matrix(1.542898,0,0,1.542898,15.963208,10.937389)"
     id="row_5"><g
       id="scythe"><path
         id="path2"
         style="fill:#b0bec5"
         d="M 59,36.9 C 57.6,30.5 54,24.7 49,20.5 L 34.1,8.2 C 32.5,6.9 30.7,5.6 28.9,4.6 l -2,-1.2 C 26.2,3 25.2,3.1 24.6,3.7 l -6.8,6.8 c -0.4,0.4 -0.4,1 0,1.3 l 2.7,2.7 c 0.4,0.4 1,0.4 1.3,0 l 4.6,-4.6 c 0.4,-0.4 1,-0.5 1.5,-0.2 0.4,0.2 0.6,0.6 0.6,1.1 v 3.6 l 2.7,-3 c 0.9,-0.9 2.3,-1 3.3,-0.2 L 47.6,22 c 4.7,3.9 8.6,9.1 10.4,15.3 0.8,2.9 2.6,9.9 3.6,13.7 l 0.9,1.9 z" /><path
         id="path4"
         style="fill:#b3e5fc"
         d="m 47.6,22 -13,-10.8 c -1,-0.8 -2.4,-0.7 -3.3,0.2 l -2.7,3 v 5 l 6.6,2.8 c 3.6,1.5 7.1,3.5 10.2,5.8 l 2.5,1.8 c 3.3,2.4 6,5.6 7.8,9.2 l 6,11.9 C 60.8,47.2 58.9,40.1 58.1,37.2 56.3,31.1 52.4,25.9 47.6,22 Z" /><path
         id="path6"
         style="fill:#8d6e63"
         d="M 5.5,59.9 4,58.1 C 3.6,57.6 3.7,56.9 4.1,56.6 7.6,53.5 12.4,49.1 13.2,47.5 14.3,45.5 15,37 15,32.1 c 0,-1 -0.6,-3.1 -1.2,-4.8 -1.3,-4.2 -2.5,-8.2 -0.4,-10.7 1,-1.2 3.4,-4.1 5.8,-6.7 2.8,-3.2 4.1,-4.6 4.9,-5.1 0.6,-0.5 1.5,-0.1 1.7,0.6 0.3,0.9 0.7,2.2 0.9,2.9 0.1,0.3 0,0.7 -0.2,1 -1.8,1.8 -7.3,8.1 -9.2,10.4 -0.3,1 0.7,4.4 1.3,6.2 C 19.3,28 20,30.2 20,32 20,32.1 19.9,45.5 17.6,49.7 16.2,52.4 10.3,57.6 7.6,60 7,60.6 6.1,60.5 5.5,59.9 Z" /><path
         id="path8"
         style="fill:#ffeb3b"
         d="m 22.7,14.1 c -0.1,0 -0.3,-0.1 -0.4,-0.2 -1.6,-1.7 -3.5,-3.6 -3.9,-3.9 0,0 -0.1,-0.1 -0.1,-0.1 -0.2,-0.2 -0.2,-0.5 0,-0.7 0.1,-0.1 0.2,-0.1 0.4,-0.1 0.3,0 0.4,0 4.4,4.1 0.2,0.2 0.2,0.5 0,0.7 -0.2,0.2 -0.3,0.2 -0.4,0.2 z" /><path
         id="path10"
         style="fill:#ffeb3b"
         d="m 23.2,13.5 c -0.1,0 -0.3,-0.1 -0.4,-0.2 C 21.5,11.8 19.3,9.2 19.2,9 L 19.5,8.6 V 8.1 c 0.3,0 0.3,0 4,4.5 0.2,0.2 0.2,0.5 -0.1,0.7 0.1,0.2 0,0.2 -0.2,0.2 z" /><path
         id="path12"
         style="fill:#ffeb3b"
         d="m 24.9,11.9 c -0.1,0 -0.3,0 -0.3,-0.1 l -4,-3.9 C 20.4,7.7 20.4,7.4 20.6,7.2 20.8,7 21.1,7 21.3,7.2 l 1.3,1.2 -1,-1.7 C 21.5,6.5 21.5,6.2 21.8,6 22,5.9 22.3,5.9 22.5,6.2 l 3,5 c 0.1,0.2 0.1,0.5 -0.1,0.6 -0.3,0 -0.4,0.1 -0.5,0.1 z" /></g></g></svg>