<?xml version="1.0" encoding="UTF-8" standalone="no"?>
<svg
   xmlns:dc="http://purl.org/dc/elements/1.1/"
   xmlns:cc="http://creativecommons.org/ns#"
   xmlns:rdf="http://www.w3.org/1999/02/22-rdf-syntax-ns#"
   xmlns:svg="http://www.w3.org/2000/svg"
   xmlns="http://www.w3.org/2000/svg"
   xmlns:sodipodi="http://sodipodi.sourceforge.net/DTD/sodipodi-0.dtd"
   xmlns:inkscape="http://www.inkscape.org/namespaces/inkscape"
   aria-hidden="true"
   data-prefix="fas"
   data-icon="key"
   class="svg-inline--fa fa-key fa-w-16"
   role="img"
   viewBox="0 0 512 512"
   version="1.1"
   id="svg81"
   sodipodi:docname="key.svg"
   inkscape:version="0.92.2 (5c3e80d, 2017-08-06)">
  <metadata
     id="metadata87">
    <rdf:RDF>
      <cc:Work
         rdf:about="">
        <dc:format>image/svg+xml</dc:format>
        <dc:type
           rdf:resource="http://purl.org/dc/dcmitype/StillImage" />
      </cc:Work>
    </rdf:RDF>
  </metadata>
  <defs
     id="defs85" />
  <sodipodi:namedview
     pagecolor="#ffffff"
     bordercolor="#666666"
     borderopacity="1"
     objecttolerance="10"
     gridtolerance="10"
     guidetolerance="10"
     inkscape:pageopacity="0"
     inkscape:pageshadow="2"
     inkscape:window-width="1920"
     inkscape:window-height="1017"
     id="namedview83"
     showgrid="false"
     inkscape:zoom="0.4609375"
     inkscape:cx="256"
     inkscape:cy="256"
     inkscape:window-x="-8"
     inkscape:window-y="282"
     inkscape:window-maximized="1"
     inkscape:current-layer="svg81" />
  <path
     d="M 335.999,512 C 238.797,512 160,433.202 160,336 c 0,-11.22 1.062,-22.19 3.069,-32.827 L 136.055,279.161 A 23.999,23.999 0 0 1 128,261.223 V 224 H 88 C 74.745,224 64,213.255 64,200 V 160 H 24 C 10.745,160 0,149.255 0,136 V 24 C 0,10.745 10.745,0 24,0 h 78.059 c 6.365,0 12.47,2.529 16.971,7.029 L 280.832,168.831 C 298.186,163.108 316.729,160 336,160 433.202,160 511.999,238.797 512,335.999 512.001,433.488 433.489,512 335.999,512 Z M 384,336 c -26.51,0 -48,21.49 -48,48 0,26.51 21.49,48 48,48 26.51,0 48,-21.49 48,-48 0,-26.51 -21.49,-48 -48,-48 z"
     id="path79"
     inkscape:connector-curvature="0"
     style="fill:currentColor" />
</svg>
