<?xml version="1.0" encoding="UTF-8" standalone="no"?>
<svg
   xmlns:dc="http://purl.org/dc/elements/1.1/"
   xmlns:cc="http://creativecommons.org/ns#"
   xmlns:rdf="http://www.w3.org/1999/02/22-rdf-syntax-ns#"
   xmlns:svg="http://www.w3.org/2000/svg"
   xmlns="http://www.w3.org/2000/svg"
   xmlns:sodipodi="http://sodipodi.sourceforge.net/DTD/sodipodi-0.dtd"
   xmlns:inkscape="http://www.inkscape.org/namespaces/inkscape"
   aria-hidden="true"
   data-prefix="fas"
   data-icon="list"
   class="svg-inline--fa fa-list fa-w-16"
   role="img"
   viewBox="0 0 512 512"
   version="1.1"
   id="svg61"
   sodipodi:docname="queue.svg"
   inkscape:version="0.92.2 (5c3e80d, 2017-08-06)">
  <metadata
     id="metadata67">
    <rdf:RDF>
      <cc:Work
         rdf:about="">
        <dc:format>image/svg+xml</dc:format>
        <dc:type
           rdf:resource="http://purl.org/dc/dcmitype/StillImage" />
      </cc:Work>
    </rdf:RDF>
  </metadata>
  <defs
     id="defs65" />
  <sodipodi:namedview
     pagecolor="#ffffff"
     bordercolor="#666666"
     borderopacity="1"
     objecttolerance="10"
     gridtolerance="10"
     guidetolerance="10"
     inkscape:pageopacity="0"
     inkscape:pageshadow="2"
     inkscape:window-width="1920"
     inkscape:window-height="1017"
     id="namedview63"
     showgrid="false"
     inkscape:zoom="0.4609375"
     inkscape:cx="256"
     inkscape:cy="256"
     inkscape:window-x="-8"
     inkscape:window-y="282"
     inkscape:window-maximized="1"
     inkscape:current-layer="svg61" />
  <path
     d="m 396,128 h 40 c 8.837,0 16,7.163 16,16 v 352 c 0,8.837 -7.163,16 -16,16 h -40 c -8.837,0 -16,-7.163 -16,-16 V 144 c 0,-8.837 7.163,-16 16,-16 z m -176,16 v 352 c 0,8.837 7.163,16 16,16 h 40 c 8.837,0 16,-7.163 16,-16 V 144 c 0,-8.837 -7.163,-16 -16,-16 h -40 c -8.837,0 -16,7.163 -16,16 z m -160,0 v 352 c 0,8.837 7.163,16 16,16 h 40 c 8.837,0 16,-7.163 16,-16 V 144 c 0,-8.837 -7.163,-16 -16,-16 H 76 c -8.837,0 -16,7.163 -16,16 z M 368,16 v 64 c 0,8.837 7.163,16 16,16 h 64 c 8.837,0 16,-7.163 16,-16 V 16 C 464,7.163 456.837,0 448,0 h -64 c -8.837,0 -16,7.163 -16,16 z m -160,0 v 64 c 0,8.837 7.163,16 16,16 h 64 c 8.837,0 16,-7.163 16,-16 V 16 C 304,7.163 296.837,0 288,0 h -64 c -8.837,0 -16,7.163 -16,16 z M 48,16 v 64 c 0,8.837 7.163,16 16,16 h 64 c 8.837,0 16,-7.163 16,-16 V 16 C 144,7.163 136.837,0 128,0 H 64 C 55.163,0 48,7.163 48,16 Z"
     id="path59"
     inkscape:connector-curvature="0"
     style="fill:#cccccc" />
</svg>
